<?xml version="1.0" encoding="UTF-8" standalone="no"?>
<svg
   version="1.0"
   x="0"
   y="0"
   width="360"
   height="240"
   id="svg8"
   sodipodi:docname="air_army.svg"
   inkscape:version="1.2.1 (9c6d41e410, 2022-07-14, custom)"
   inkscape:export-filename="air_army.png"
   inkscape:export-xdpi="300"
   inkscape:export-ydpi="300"
   xmlns:inkscape="http://www.inkscape.org/namespaces/inkscape"
   xmlns:sodipodi="http://sodipodi.sourceforge.net/DTD/sodipodi-0.dtd"
   xmlns="http://www.w3.org/2000/svg"
   xmlns:svg="http://www.w3.org/2000/svg"
   xmlns:rdf="http://www.w3.org/1999/02/22-rdf-syntax-ns#"
   xmlns:cc="http://creativecommons.org/ns#"
   xmlns:dc="http://purl.org/dc/elements/1.1/">
  <metadata
     id="metadata14">
    <rdf:RDF>
      <cc:Work
         rdf:about="">
        <dc:format>image/svg+xml</dc:format>
        <dc:type
           rdf:resource="http://purl.org/dc/dcmitype/StillImage" />
      </cc:Work>
    </rdf:RDF>
  </metadata>
  <defs
     id="defs12" />
  <sodipodi:namedview
     fit-margin-bottom="0"
     fit-margin-right="0"
     fit-margin-left="0"
     fit-margin-top="0"
     pagecolor="#ffffff"
     bordercolor="#666666"
     borderopacity="1"
     objecttolerance="10"
     gridtolerance="10"
     guidetolerance="10"
     inkscape:pageopacity="0"
     inkscape:pageshadow="2"
     inkscape:window-width="1830"
     inkscape:window-height="974"
     id="namedview10"
     showgrid="false"
     inkscape:zoom="1.9666667"
     inkscape:cx="142.11864"
     inkscape:cy="125.59322"
     inkscape:window-x="45"
     inkscape:window-y="61"
     inkscape:window-maximized="1"
     inkscape:current-layer="svg8"
     inkscape:document-rotation="0"
     inkscape:showpageshadow="0"
     inkscape:pagecheckerboard="0"
     inkscape:deskcolor="#d1d1d1" />
  <rect
     width="360"
     height="240"
     x="0"
     y="0"
     fill="#ce1126"
     id="rect2" />
  <path
     style="fill:#ffffff;fill-rule:evenodd;stroke:none;stroke-width:0.447036"
     inkscape:connector-curvature="0"
     id="path0"
     d="m 179.0943,52.430077 c -4.69253,4.528473 -11.91976,7.532107 -18.65212,7.752496 -0.92179,0.0304 -1.67639,0.06929 -1.67639,0.08673 0,0.103712 0.70006,1.78412 0.95845,2.300447 0.49665,0.992867 1.64062,2.810961 3.17082,5.039435 2.81186,4.095296 4.14581,6.467269 4.83961,8.604994 0.49577,1.527075 0.61647,5.390359 0.28432,9.074829 -0.0268,0.295044 -0.20609,2.206122 -0.39876,4.246841 -0.19267,2.040719 -0.40099,4.313896 -0.46268,5.051505 -0.13366,1.590107 -0.14126,6.651896 -0.0121,7.733726 0.10192,0.85026 -4.5e-4,9.78025 -0.15467,13.54519 -0.1891,4.60938 -0.709,7.84905 -1.76177,10.97786 l -0.41485,1.23248 -0.7023,0.671 c -4.11675,3.93302 -17.23591,7.03947 -29.75426,7.04484 -5.01887,0.002 -8.46999,-0.51679 -23.43809,-3.52399 -1.45778,-0.29281 -2.69473,-0.53242 -2.74927,-0.53242 -0.13456,0 -0.12562,0.75594 0.0353,2.88561 0.37864,5.01529 0.93251,8.30637 2.91691,17.3204 1.62721,7.39308 2.2772,10.75704 2.84627,14.73431 0.10059,0.70274 0.18284,1.29105 0.18284,1.30624 0,0.0156 0.35182,0.0559 0.78231,0.0894 8.99928,0.70498 16.29759,2.13505 23.4001,4.58525 13.01232,4.48778 22.15286,6.90492 28.52312,7.54194 5.36175,0.536 10.10525,3.3939 12.6994,7.65102 0.19848,0.32588 0.39831,0.59277 0.44346,0.59277 0.0452,0 0.24497,-0.26688 0.44346,-0.59277 2.59415,-4.25712 7.33764,-7.11502 12.69939,-7.65102 6.37026,-0.63702 15.51081,-3.05415 28.52313,-7.54194 7.1025,-2.4502 14.40081,-3.88027 23.40009,-4.58525 0.4305,-0.0335 0.78231,-0.0738 0.78231,-0.0894 0,-0.0152 0.0823,-0.6035 0.18284,-1.30624 0.56908,-3.97728 1.21907,-7.34123 2.84628,-14.73431 1.98439,-9.01402 2.53827,-12.30511 2.91691,-17.3204 0.16093,-2.12968 0.16987,-2.88561 0.0353,-2.88561 -0.0545,0 -1.29148,0.23961 -2.74927,0.53242 -14.9681,3.0072 -18.41922,3.52621 -23.43809,3.52399 -12.51834,-0.005 -25.63751,-3.11182 -29.75426,-7.04484 l -0.70229,-0.671 -0.41485,-1.23248 c -1.05277,-3.12881 -1.57268,-6.36848 -1.76177,-10.97786 -0.15423,-3.76494 -0.2566,-12.69493 -0.15468,-13.54519 0.1292,-1.08183 0.1216,-6.143619 -0.0121,-7.733726 -0.0617,-0.737609 -0.27001,-3.010786 -0.46268,-5.051505 -0.19267,-2.040719 -0.37193,-3.951797 -0.39875,-4.246841 -0.71616,-7.941593 -0.0979,-10.074848 5.12392,-17.679823 1.5302,-2.228474 2.67417,-4.046568 3.17083,-5.039435 0.25838,-0.516327 0.95844,-2.196735 0.95844,-2.300447 0,-0.01743 -0.75415,-0.05633 -1.67638,-0.08673 -6.73192,-0.220389 -13.94395,-3.217317 -18.65034,-7.750261 l -0.90882,-0.875296 -0.90436,0.873061" />
</svg>
